<?xml version="1.0" encoding="UTF-8"?>
<svg id="_图层_1" xmlns="http://www.w3.org/2000/svg" version="1.1" xmlns:xlink="http://www.w3.org/1999/xlink" viewBox="0 0 512 512">
  <!-- Generator: Adobe Illustrator 29.6.1, SVG Export Plug-In . SVG Version: 2.1.1 Build 9)  -->
  <defs>
    <style>
      .st0 {
        stroke-width: 8px;
      }

      .st0, .st1, .st2 {
        stroke-miterlimit: 10;
      }

      .st0, .st2 {
        fill: none;
        stroke: #fff;
      }

      .st1 {
        fill: url(#_未命名的渐变1);
        stroke: #6f3eeb;
        stroke-width: 4px;
      }

      .st3 {
        fill: #fff;
      }

      .st2 {
        stroke-width: 16px;
      }

      .st4 {
        fill: url(#_未命名的渐变);
      }
    </style>
    <linearGradient id="_未命名的渐变" data-name="未命名的渐变" x1="573.44" y1="1005.5" x2="-71.1" y2="153.73" gradientTransform="translate(0 -330)" gradientUnits="userSpaceOnUse">
      <stop offset=".19" stop-color="#4f46e5"/>
      <stop offset=".72" stop-color="#7c3aed"/>
    </linearGradient>
    <linearGradient id="_未命名的渐变1" data-name="未命名的渐变" x1="304.88" y1="317.06" x2="111.19" y2="43.02" gradientTransform="matrix(1,0,0,1,0,0)" xlink:href="#_未命名的渐变"/>
  </defs>
  <rect class="st4" x=".55" y=".55" width="510.89" height="510.89" rx="193.72" ry="193.72"/>
  <g>
    <rect class="st2" x="144.84" y="179.07" width="261.77" height="245.67" rx="32.45" ry="32.45"/>
    <g>
      <polygon class="st0" points="187.96 352.49 219.48 352.49 219.48 386.45 187.96 386.45 187.96 386.45 187.96 352.49"/>
      <polygon class="st0" points="187.96 297.91 219.48 297.91 219.48 331.87 187.96 331.87 187.96 331.87 187.96 297.91"/>
      <rect class="st0" x="187.96" y="243.32" width="31.53" height="33.96"/>
      <line class="st0" x1="244.01" y1="357.36" x2="307.65" y2="357.36"/>
      <line class="st0" x1="244.01" y1="381.39" x2="351.55" y2="381.39"/>
      <line class="st0" x1="244.01" y1="327.21" x2="364.06" y2="327.21"/>
      <line class="st0" x1="244.01" y1="302.27" x2="335.14" y2="302.27"/>
      <line class="st0" x1="244.01" y1="274.52" x2="311.92" y2="274.52"/>
      <line class="st0" x1="244.01" y1="251.19" x2="342.73" y2="251.19"/>
    </g>
  </g>
  <path id="path1-5" class="st3" d="M208.85,272.61l2.49.92,4.84,1.55c9.07,2.91,16.22,3.93,25.95,3.69,11.16-.27,20.65-2.54,29.68-7.09,7.1-3.58,14.55-10.19,18.05-16.03,2.24-3.74,3.91-8.58,4.38-12.67.19-1.65.41-3.06.49-3.15.08-.08,2.97.11,6.42.43,7.09.66,18.89.75,24.84.18,26.18-2.51,41.94-11.78,50.79-29.88,1.9-3.89,3.89-9.84,4.61-13.8,1.68-9.22.56-19.99-2.84-27.35-1.06-2.28-1.07-2.37-.75-4.64.45-3.19.12-9.92-.68-13.83-2.78-13.59-10.88-26.99-20.8-34.43-2.66-1.99-8.09-4.86-9.81-5.19-.88-.17-1.18-.55-2.56-3.17-4.09-7.78-11.3-15.17-19.94-20.44-10.92-6.67-24.99-10.68-34.98-9.98l-2.71.19-1.68-1.43c-6.96-5.94-17.55-10.63-29.53-13.09-11.85-2.43-22.65-2.67-30.49-.69-4.35,1.1-6.39,2.17-8.88,4.65l-2.14,2.13-1.19-.95c-3.22-2.57-8.9-4.63-15.23-5.51-4.63-.65-15.02-.47-20.08.33-12.38,1.98-22.71,6.68-29.52,13.45l-2.7,2.68-5.56.07c-7.85.1-14.38,1.28-22.09,3.98-3.94,1.38-10.84,4.99-14.39,7.53-3.46,2.47-8.04,6.88-10.44,10.07-2.03,2.69-4.79,8.2-6.02,12l-.9,2.79-3.31,1.66c-4.04,2.03-6.37,3.6-9.56,6.45-7.48,6.69-12.55,15.09-15.12,25.05-1.39,5.39-1.76,8.73-1.56,14.23l.17,4.71-1.74,2.43c-8.15,11.37-10.12,30.21-4.85,46.43,1.09,3.37,4.5,10.61,6.07,12.91,3.83,5.6,8.28,10.06,12.99,13.01,2.39,1.5,8.06,4.22,8.79,4.22.57,0,.49.54-.24,1.52-1.83,2.48-2.84,8.28-2.27,12.95,2.16,17.54,18.94,33.69,39.41,37.9,9.78,2.02,19.79,1.91,29.15-.3,0,0,5.89-1.48,10.17-3.29s8.74-5.08,8.74-5.08c4.91-3.58,11.21-10.26,15.55-16.48,2.43-3.49,5.78-8.9,6.99-11.27l.82-1.62,2.35,1.07c5.21,2.37,10.05,4.95,14.05,6.86l6.8,3.26-.03.06Z"/>
  <g id="layer1">
    <path id="path1" class="st1" d="M208.85,272.61l2.49.92,4.84,1.55c9.07,2.91,16.22,3.93,25.95,3.69,11.16-.27,20.65-2.54,29.68-7.09,7.1-3.58,14.55-10.19,18.05-16.03,2.24-3.74,3.91-8.58,4.38-12.67.19-1.65.41-3.06.49-3.15.08-.08,2.97.11,6.42.43,7.09.66,18.89.75,24.84.18,26.18-2.51,41.94-11.78,50.79-29.88,1.9-3.89,3.89-9.84,4.61-13.8,1.68-9.22.56-19.99-2.84-27.35-1.06-2.28-1.07-2.37-.75-4.64.45-3.19.12-9.92-.68-13.83-2.78-13.59-10.88-26.99-20.8-34.43-2.66-1.99-8.09-4.86-9.81-5.19-.88-.17-1.19-.55-2.56-3.17-4.09-7.78-11.3-15.17-19.94-20.44-10.92-6.67-24.99-10.68-34.98-9.98l-2.71.19-1.68-1.43c-6.96-5.94-17.55-10.63-29.53-13.09-11.85-2.43-22.65-2.67-30.49-.69-4.35,1.1-6.39,2.17-8.88,4.65l-2.14,2.13-1.19-.95c-3.22-2.57-8.9-4.63-15.23-5.51-4.63-.65-15.02-.47-20.08.33-12.38,1.98-22.71,6.68-29.52,13.45l-2.7,2.68-5.56.07c-7.85.1-14.38,1.28-22.09,3.98-3.94,1.38-10.84,4.99-14.39,7.53-3.46,2.47-8.04,6.88-10.44,10.07-2.03,2.69-4.79,8.2-6.02,12l-.9,2.79-3.31,1.66c-4.04,2.03-6.37,3.6-9.56,6.45-7.48,6.69-12.55,15.09-15.12,25.05-1.39,5.39-1.76,8.73-1.56,14.23l.17,4.71-1.74,2.43c-8.15,11.37-10.12,30.21-4.85,46.43,1.09,3.37,4.5,10.61,6.07,12.91,3.83,5.6,8.28,10.06,12.99,13.01,2.39,1.5,8.06,4.22,8.79,4.22.57,0,.49.54-.24,1.52-1.83,2.48-2.84,8.28-2.27,12.95,2.16,17.54,18.94,33.69,39.41,37.9,9.78,2.02,19.79,1.91,29.15-.3,0,0,5.89-1.48,10.17-3.29s8.74-5.08,8.74-5.08c4.91-3.58,11.21-10.26,15.55-16.48,2.43-3.49,5.78-8.9,6.99-11.27l.82-1.62,2.35,1.07c5.21,2.37,10.05,4.95,14.05,6.86l6.8,3.26-.03.06ZM123.28,295.36c-6.77-.62-14.44-2.5-18.39-4.51l-1.48-.75,8.5-.02c8.8-.02,12.6-.34,20.25-1.75,10.79-1.99,23.42-6.34,34.45-11.87,2.3-1.16,4.25-2.04,4.32-1.97.22.22-4.39,5.32-7.34,8.11-5.1,4.82-9.63,7.52-16.53,9.85-7.9,2.67-15.77,3.63-23.79,2.9h0ZM99.94,284.11c-2.01-.27-4.33-.49-5.16-.49-1.47,0-1.58-.08-4.05-2.57-2.59-2.62-4.31-4.66-4.09-4.87.07-.07,1.48.15,3.14.47,28.22,5.5,60.75-.45,85.43-15.61,4.77-2.93,6.04-2.47,3.73,1.34-1.34,2.22-1.48,2.34-5.03,4.33-5.13,2.89-15.64,7.97-20.16,9.76-10.82,4.27-20.77,6.83-30.81,7.93-5.13.56-17.76.4-23-.3h0ZM230.14,272.66c-4.21-.6-7.87-1.47-12.26-2.89-4.64-1.51-8.44-3.16-18.89-8.23-15-7.27-21.05-9.26-32.7-10.75-3.54-.45-5.68-.64-18.76-1.63-10.97-.83-16.46-2.13-22.67-5.36-7.41-3.86-14.24-9.91-20.24-17.91-1.48-1.97-3.09-4.33-3.57-5.24-1.32-2.47-1.98-3.08-3.33-3.08s-2.36.88-2.7,2.27c-.29,1.17.56,2.93,3.33,6.93,3.08,4.46,6.01,7.87,10.22,11.9,2.13,2.04,3.33,3.4,3.07,3.49-.68.24-8.1,1.39-11.21,1.74-14.3,1.62-26.72-2.29-35.15-11.05-8.54-8.88-13.75-23.41-13.16-36.76.38-8.74,2.82-16.41,7.35-23.15,2.57-3.82,2.5-3.58,2.07-7.66-.79-7.37,1.01-16.43,4.76-23.94,4.05-8.09,11.6-15.56,19.3-19.09,4.11-1.88,4.24-1.96,4.69-2.65.23-.35.7-1.81,1.05-3.25,3.4-13.79,16.22-24.86,33.86-29.25,6.24-1.55,8.15-1.79,14.75-1.79h6.19l1.43.92c7.93,5.13,19.81,15.95,23.82,21.7,6.41,9.19,10.24,20.71,11.05,33.27.28,4.33.58,5.25,1.87,5.84,1.22.56,1.98.4,3.01-.64l.98-.98-.21-4.03c-.78-15.33-6.23-30.1-14.87-40.29-4.36-5.14-12.69-12.53-19.7-17.46-1.35-.95-2.46-1.91-2.46-2.12,0-.93,5.61-5.21,9.21-7.02,5.12-2.57,13.8-5.15,19.84-5.89,4.09-.5,13.2-.52,16.67-.02,6.07.86,10.73,2.76,13.33,5.43l1.49,1.53.37,4.03c.54,5.9,2.42,12.63,5.44,19.53,1.09,2.48,4.7,9.09,6.57,12.01,2.03,3.18,4.91,8.92,5.82,11.6,2.25,6.61,2.01,10.03-1.43,20.32-4.95,14.84-6.19,26.78-4.39,42.35l.19,1.67h-1.18c-.93,0-1.87-.46-4.44-2.18-8.38-5.61-19.83-10.56-29.81-12.89-7.45-1.74-9.16-1.9-21.01-1.93-10.5-.02-11.25-.07-13.65-.74-4.67-1.31-9.4-4.89-12.44-9.41-1.44-2.14-4.14-7.43-5.03-9.84-.82-2.23-1.37-2.99-2.33-3.24-1.18-.31-2-.13-2.8.61-1.55,1.44-1.14,3.26,2.21,9.93,4.04,8.04,9.27,13.54,15.41,16.2,4.65,2.02,5.64,2.13,18.32,2.19,10.3.05,11.8.12,15.24.76,12,2.22,24.43,7.27,34.2,13.92,2.69,1.83,4.06,2.33,6.37,2.33,3.66,0,12.66,1.32,18.64,2.73,15.1,3.56,29.05,11.37,36.86,20.65,6.67,7.92,10.63,18.11,9.97,25.67-.9,10.31-8.24,19.43-20.34,25.25-7.06,3.4-14.82,5.4-23.96,6.17-2.64.22-10.92-.13-14.25-.61h0v.03ZM249.04,248.69c.93-.38,1.7-1.55,1.7-2.6,0-2-10.42-11.98-14.76-14.14-1.07-.53-4.2-1.24-9.39-2.12-10.77-1.83-13.95-2.59-22.94-5.46-6.12-1.95-10.57-3.84-17.04-7.19-3.06-1.59-6.7-3.47-8.1-4.18l-2.54-1.29-4.29.02c-2.36,0-8.36.08-13.33.14-7.44.1-9.67.02-12.54-.43-10.14-1.6-17.21-4.2-24.43-9.01-17.94-11.94-26.85-38.78-20.14-60.61.86-2.8,3.44-7.98,5.22-10.47,6.61-9.27,18.2-14,29.49-12.03,6.39,1.11,10.83,3.7,15.43,8.97,1.3,1.49,1.59,1.66,2.72,1.66,2.67,0,3.5-2.55,1.64-5.11-3.6-4.97-10.45-9.29-17.09-10.79-16.33-3.68-32.81,4.44-40.29,19.85-10.22,21.06-4.48,50.8,13.04,67.66,8.87,8.53,20.97,13.98,34.57,15.57,3.87.45,6.46.51,16.64.34l12.06-.19,3.49,1.9c6.53,3.55,12.37,6.35,17.14,8.22,10.09,3.95,15.56,5.37,30.77,7.97,7.01,1.2,7.34,1.29,9.04,2.45.97.66,3.91,3.29,6.53,5.84,5.6,5.45,5.88,5.64,7.35,5.05h0l.05-.02ZM74.23,223.37c.82-1.05.74-2.07-.45-5.37-1.73-4.81-1.69-9.48.11-13.35,1.14-2.44,2.9-4.38,6.35-6.99,4.49-3.4,4.65-4.11,2.21-9.82-5.42-12.63-5.74-23.48-1.04-35.79,1.18-3.09,1.2-4.07.09-5.25-.8-.86-2.47-.89-3.53-.06-1.56,1.23-3.92,8.59-4.88,15.26-.4,2.76-.49,4.86-.35,8.57.26,7.02,1.52,12.42,4.39,18.8.71,1.57,1.16,2.96,1.02,3.08-.15.13-1.31.98-2.58,1.91-5.95,4.33-8.47,9.33-8.47,16.85,0,3.84.67,7.22,2.11,10.56.79,1.84,1.59,2.46,3.16,2.46.9,0,1.33-.2,1.86-.87h0ZM96.77,272.54c-7.09-1.06-13.76-2.53-14.22-3.14-.54-.71-1.95-5.22-2.2-7-.19-1.37-.17-1.4.57-1.16,16.66,5.34,36.56,6.48,54.89,3.13,8.62-1.57,15.64-3.55,23.3-6.57l4.09-1.61,3.43.38c4.45.49,4.71.6,3.56,1.38-.49.34-2.25,1.3-3.91,2.14-13.32,6.77-28.16,11.19-42.7,12.71-1.75.18-3.67.39-4.29.46-.61.08-4.97.08-9.68.02-6.52-.08-9.6-.26-12.86-.75h.02ZM100.58,260.29c-5.52-.75-12.43-2.25-16.51-3.58-3.45-1.13-3.65-1.24-3.55-1.99.16-1.26,1.54-3.91,2.56-4.88l.93-.89,2.49.41c5.8.95,14.29.43,26.45-1.62l5.39-.91,4.05,2.01c7.08,3.5,13.25,5.07,23.34,5.93,2.58.22,4.58.5,4.44.63-.37.36-9.04,2.67-12.79,3.41-4.72.93-9.52,1.63-13.36,1.95-4.9.41-19.15.13-23.46-.46h.02ZM300.46,234.55c-6.82-.66-6.46-.55-6.88-2.1-.19-.72-.23-1.41-.09-1.53s1.76-.77,3.59-1.43c5.38-1.95,10.87-4.9,17.87-9.58,1.37-.92,2.95-1.81,3.51-1.98.55-.17,4.08-.38,7.83-.48,7.81-.2,13.07-.95,17.44-2.49,3.4-1.2,6.85-2.92,7.84-3.91,1.44-1.44.65-4.24-1.34-4.73-.63-.16-1.56.15-3.74,1.22-6.22,3.06-10.55,3.94-21.15,4.31-9.2.32-9.1.29-18.13,6.13-3.91,2.53-8.48,4.82-12.44,6.24l-3.43,1.23-1.28-2.55c-1.69-3.37-4.13-7.12-6.71-10.31l-2.1-2.61,2.16-4.7c3.42-7.43,5.52-10.66,9.28-14.23,2.99-2.84,4.72-3.8,11.72-6.5,6.2-2.39,8.73-3.72,11.38-5.98,5.98-5.1,9.25-14.38,8.29-23.52-1.85-17.59-13.36-31.18-32.39-38.24-1.66-.62-4.87-1.64-7.14-2.28-11.65-3.28-15.72-4.91-18.9-7.59-2.96-2.5-5.87-7.04-7.74-12.09-1.15-3.11-1.47-3.64-2.47-4.16-1.06-.55-2.19-.32-3.04.62-1.32,1.46-1.15,2.64,1.04,7.51,1.87,4.16,3.42,6.74,5.69,9.47,4.12,4.96,8.9,7.51,20.03,10.7,9.38,2.69,12.36,3.71,15.87,5.47,9.48,4.73,15.12,9.88,19.35,17.68,2.67,4.93,3.98,10.36,3.98,16.5s-1.31,9.84-4.55,13.79c-2.39,2.92-5.58,4.78-11.96,6.99-4.91,1.7-6.31,2.33-8.96,4.05-5.73,3.71-8.65,7.37-13.52,16.97-1.46,2.88-2.71,5.29-2.77,5.35-.06.06-1.22-.75-2.59-1.81-3.28-2.53-7.45-5.12-10.95-6.79l-2.84-1.36.19-2.06c2.3-24.32,5.34-36.01,10.78-41.45,3-3,6.14-4.27,10.49-4.26,3.92,0,7.18,1.36,11.18,4.62,2.75,2.24,5.98-.26,4.36-3.38-1.03-1.99-6.78-5.42-10.83-6.46-2.26-.58-6.95-.65-9.38-.15-2.95.61-6.71,2.64-9.2,4.99-7.06,6.63-10.25,17.53-12.8,43.65-.11,1.18-.24,2.14-.28,2.14s-1.21-.42-2.6-.92c-3.71-1.35-13.34-3.69-17.91-4.33-2.18-.31-4.01-.59-4.06-.63-.05-.03-.29-1.62-.53-3.52-1.31-10.25-.72-21.74,1.59-30.92.42-1.66,1.61-5.53,2.66-8.61s2.11-6.5,2.37-7.62c1.98-8.58-.03-16.34-7.44-28.7-7.23-12.07-10.34-20.29-11.27-29.73-.39-3.93,1.08-6.9,4.25-8.63,6.39-3.48,21.43-3.55,34.96-.18,10.92,2.73,18.59,6.47,25.62,12.5l1.48,1.27,5.74.02c6.07.02,8.85.39,14.39,1.87,11.48,3.09,22.59,9.75,29.66,17.81,2.23,2.54,5.13,7.08,5.98,9.34.98,2.62,2.08,3.63,4.68,4.28,9.95,2.5,21.08,15.34,25.75,29.71,1.57,4.83,1.99,7.13,2.17,11.79.25,6.5.22,6.6-2.32,8.09-2.31,1.35-6.77,5.8-8.83,8.8-1.54,2.25-1.65,3.76-.35,4.89,1.6,1.38,3.32.83,4.94-1.58,1.28-1.89,5.53-6.33,6.59-6.88.69-.36.77-.28,1.54,1.46.45,1.01,1.19,3.2,1.64,4.86.75,2.75.82,3.57.84,9.37.02,7.08-.29,9.24-2.2,14.97-3.94,11.85-11.81,20.86-22.84,26.15-12.16,5.83-30.93,8.12-50.77,6.19h0v-.04ZM353.13,192.02c1.01-1.01,1-1.72-.18-8.31-2.18-12.17-4.85-21.91-6.54-23.93-1.46-1.74-4.1-1.06-4.65,1.2-.1.43.4,2.49,1.2,4.99,1.68,5.19,3.32,12.14,4.58,19.49.91,5.3,1.16,6.07,2.2,6.95.8.67,2.52.48,3.38-.38h0ZM351.95,140.94c.88-.93.9-2.57.06-3.95-1.05-1.72-7.27-7.77-10.29-10-5.02-3.72-11.93-7.2-14.34-7.21-1.66,0-2.67.97-2.67,2.6s.78,2.38,4.02,3.73c6.79,2.84,13.02,7.51,18.55,13.91,1.29,1.49,1.58,1.67,2.71,1.67.92,0,1.46-.2,1.96-.73h0v-.02Z"/>
  </g>
</svg>